<svg xmlns="http://www.w3.org/2000/svg" xmlns:xlink="http://www.w3.org/1999/xlink" width="463" zoomAndPan="magnify" viewBox="0 0 347.25 374.999991" height="500" preserveAspectRatio="xMidYMid meet" version="1.2"><defs><clipPath id="96230ba422"><path d="M 0 2 L 346 2 L 346 374.59375 L 0 374.59375 Z M 0 2 "/></clipPath></defs><g id="9c801c7c39"><g clip-rule="nonzero" clip-path="url(#96230ba422)"><path style=" stroke:none;fill-rule:nonzero;fill:#ffffff;fill-opacity:1;" d="M 57.242188 91.320312 L 4.191406 91.320312 C 3.925781 91.320312 3.664062 91.34375 3.402344 91.398438 C 3.140625 91.449219 2.886719 91.527344 2.640625 91.628906 C 2.394531 91.730469 2.164062 91.855469 1.941406 92.003906 C 1.71875 92.148438 1.515625 92.316406 1.328125 92.507812 C 1.140625 92.695312 0.972656 92.898438 0.824219 93.121094 C 0.675781 93.339844 0.550781 93.574219 0.449219 93.820312 C 0.347656 94.066406 0.269531 94.320312 0.21875 94.578125 C 0.167969 94.839844 0.140625 95.105469 0.140625 95.371094 L 0.140625 201.472656 C 0.140625 201.738281 0.167969 202 0.21875 202.261719 C 0.269531 202.523438 0.347656 202.777344 0.449219 203.019531 C 0.550781 203.265625 0.675781 203.5 0.824219 203.722656 C 0.972656 203.941406 1.140625 204.148438 1.328125 204.335938 C 1.515625 204.523438 1.71875 204.691406 1.941406 204.839844 C 2.164062 204.988281 2.394531 205.109375 2.640625 205.210938 C 2.886719 205.316406 3.140625 205.390625 3.402344 205.441406 C 3.664062 205.496094 3.925781 205.519531 4.191406 205.519531 L 57.242188 205.519531 C 57.507812 205.519531 57.773438 205.496094 58.03125 205.441406 C 58.292969 205.390625 58.546875 205.316406 58.792969 205.210938 C 59.039062 205.109375 59.269531 204.988281 59.492188 204.839844 C 59.714844 204.691406 59.917969 204.523438 60.105469 204.335938 C 60.292969 204.148438 60.460938 203.941406 60.609375 203.722656 C 60.757812 203.5 60.882812 203.265625 60.984375 203.019531 C 61.085938 202.777344 61.164062 202.523438 61.214844 202.261719 C 61.265625 202 61.292969 201.738281 61.292969 201.472656 L 61.292969 194.585938 C 67.773438 194.585938 81.054688 194.871094 88.953125 198.636719 C 99.90625 202.929688 111.152344 206.234375 122.683594 208.558594 C 122.988281 211.066406 123.527344 213.523438 124.304688 215.929688 C 123.566406 216.6875 122.886719 217.492188 122.265625 218.34375 C 121.640625 219.199219 121.082031 220.09375 120.585938 221.027344 C 120.089844 221.960938 119.660156 222.921875 119.300781 223.917969 C 118.941406 224.910156 118.652344 225.925781 118.4375 226.960938 C 118.222656 227.996094 118.078125 229.039062 118.011719 230.09375 C 117.945312 231.148438 117.949219 232.203125 118.03125 233.257812 C 118.113281 234.3125 118.269531 235.355469 118.5 236.386719 C 118.730469 237.417969 119.03125 238.429688 119.40625 239.417969 C 120.382812 242.632812 121.734375 245.683594 123.453125 248.570312 C 121.941406 249.589844 120.574219 250.777344 119.359375 252.140625 C 118.140625 253.503906 117.113281 254.996094 116.269531 256.613281 C 115.429688 258.234375 114.800781 259.933594 114.386719 261.710938 C 113.96875 263.488281 113.78125 265.292969 113.816406 267.117188 C 113.855469 268.539062 114.023438 269.949219 114.308594 271.339844 C 114.597656 272.734375 115.003906 274.09375 115.53125 275.414062 C 116.058594 276.738281 116.695312 278.003906 117.445312 279.214844 C 118.195312 280.425781 119.042969 281.558594 119.992188 282.621094 C 120.941406 283.679688 121.976562 284.652344 123.09375 285.53125 C 124.214844 286.410156 125.402344 287.183594 126.65625 287.855469 C 127.914062 288.527344 129.214844 289.082031 130.570312 289.523438 C 131.921875 289.964844 133.304688 290.285156 134.714844 290.484375 L 179.785156 297.855469 C 178.976562 309.761719 179.785156 339.203125 187.886719 358.597656 C 193.109375 370.546875 201.210938 374.597656 208.699219 374.597656 C 210.460938 374.59375 212.1875 374.363281 213.882812 373.90625 C 221.496094 371.882812 226.882812 365.808594 226.035156 360.339844 C 225.222656 353.941406 226.035156 318.023438 238.546875 300.363281 C 248.105469 287.042969 273.617188 279.589844 284.269531 276.957031 L 284.269531 281.453125 C 284.269531 281.71875 284.292969 281.980469 284.347656 282.242188 C 284.398438 282.503906 284.476562 282.757812 284.578125 283.003906 C 284.679688 283.25 284.804688 283.480469 284.949219 283.703125 C 285.097656 283.925781 285.265625 284.128906 285.453125 284.316406 C 285.640625 284.503906 285.847656 284.671875 286.066406 284.820312 C 286.289062 284.96875 286.523438 285.09375 286.769531 285.195312 C 287.015625 285.296875 287.265625 285.371094 287.527344 285.425781 C 287.789062 285.476562 288.050781 285.503906 288.316406 285.503906 L 341.367188 285.503906 C 341.636719 285.503906 341.898438 285.476562 342.160156 285.425781 C 342.417969 285.371094 342.671875 285.296875 342.917969 285.195312 C 343.164062 285.09375 343.398438 284.96875 343.617188 284.820312 C 343.839844 284.671875 344.042969 284.503906 344.234375 284.316406 C 344.421875 284.128906 344.589844 283.925781 344.734375 283.703125 C 344.882812 283.480469 345.007812 283.25 345.109375 283.003906 C 345.210938 282.757812 345.289062 282.503906 345.339844 282.242188 C 345.394531 281.980469 345.417969 281.71875 345.417969 281.453125 L 345.417969 175.148438 C 345.417969 174.882812 345.394531 174.621094 345.339844 174.359375 C 345.289062 174.097656 345.210938 173.84375 345.109375 173.597656 C 345.007812 173.351562 344.882812 173.121094 344.734375 172.898438 C 344.589844 172.675781 344.421875 172.472656 344.234375 172.285156 C 344.042969 172.097656 343.839844 171.929688 343.617188 171.78125 C 343.398438 171.632812 343.164062 171.507812 342.917969 171.40625 C 342.671875 171.304688 342.417969 171.226562 342.160156 171.175781 C 341.898438 171.125 341.636719 171.097656 341.367188 171.097656 L 288.480469 171.097656 C 288.214844 171.097656 287.949219 171.125 287.691406 171.175781 C 287.429688 171.226562 287.175781 171.304688 286.929688 171.40625 C 286.683594 171.507812 286.453125 171.632812 286.230469 171.78125 C 286.007812 171.929688 285.804688 172.097656 285.617188 172.285156 C 285.429688 172.472656 285.261719 172.675781 285.113281 172.898438 C 284.964844 173.121094 284.839844 173.351562 284.738281 173.597656 C 284.636719 173.84375 284.558594 174.097656 284.507812 174.359375 C 284.457031 174.621094 284.429688 174.882812 284.429688 175.148438 L 284.429688 182.03125 C 277.949219 182.03125 264.667969 181.75 256.769531 177.984375 C 245.816406 173.691406 234.570312 170.382812 223.035156 168.0625 C 222.734375 165.550781 222.195312 163.09375 221.417969 160.691406 C 222.15625 159.933594 222.835938 159.128906 223.457031 158.273438 C 224.082031 157.421875 224.640625 156.527344 225.136719 155.59375 C 225.632812 154.660156 226.0625 153.695312 226.421875 152.703125 C 226.78125 151.710938 227.070312 150.695312 227.285156 149.660156 C 227.5 148.625 227.644531 147.582031 227.710938 146.527344 C 227.777344 145.46875 227.769531 144.417969 227.6875 143.363281 C 227.609375 142.308594 227.453125 141.265625 227.222656 140.234375 C 226.992188 139.203125 226.691406 138.191406 226.316406 137.203125 C 225.339844 133.988281 223.988281 130.9375 222.265625 128.050781 C 223.78125 127.03125 225.148438 125.839844 226.363281 124.480469 C 227.582031 123.117188 228.609375 121.625 229.449219 120.003906 C 230.292969 118.386719 230.921875 116.6875 231.335938 114.90625 C 231.753906 113.128906 231.941406 111.328125 231.90625 109.503906 C 231.863281 108.082031 231.699219 106.671875 231.414062 105.277344 C 231.125 103.882812 230.71875 102.527344 230.191406 101.203125 C 229.664062 99.882812 229.027344 98.617188 228.277344 97.40625 C 227.527344 96.195312 226.679688 95.058594 225.730469 94 C 224.78125 92.9375 223.746094 91.96875 222.628906 91.089844 C 221.507812 90.210938 220.320312 89.433594 219.066406 88.765625 C 217.808594 88.09375 216.507812 87.539062 215.152344 87.097656 C 213.800781 86.65625 212.417969 86.335938 211.007812 86.136719 L 165.773438 78.726562 C 166.585938 66.820312 165.773438 37.378906 157.675781 17.980469 C 151.398438 3.28125 140.464844 0.484375 131.835938 2.710938 C 124.222656 4.738281 118.839844 10.8125 119.6875 16.277344 C 120.5 22.675781 119.6875 58.597656 107.175781 76.253906 C 97.617188 89.578125 72.105469 97.03125 61.453125 99.664062 L 61.453125 95.371094 C 61.453125 95.097656 61.425781 94.828125 61.371094 94.558594 C 61.320312 94.292969 61.238281 94.03125 61.132812 93.78125 C 61.023438 93.53125 60.894531 93.292969 60.738281 93.066406 C 60.582031 92.84375 60.40625 92.636719 60.210938 92.445312 C 60.015625 92.257812 59.800781 92.089844 59.570312 91.945312 C 59.339844 91.796875 59.097656 91.675781 58.84375 91.582031 C 58.585938 91.484375 58.324219 91.414062 58.054688 91.371094 C 57.785156 91.324219 57.515625 91.308594 57.242188 91.320312 Z M 53.191406 104.722656 L 53.191406 197.421875 L 8.242188 197.421875 L 8.242188 99.417969 L 53.191406 99.417969 Z M 292.53125 271.894531 L 292.53125 179.199219 L 337.480469 179.199219 L 337.480469 277.402344 L 292.53125 277.402344 Z M 253.207031 185.152344 C 262.644531 189.769531 277.222656 190.171875 284.429688 190.132812 L 284.429688 268.617188 C 274.304688 270.964844 243.933594 279.144531 232.148438 295.625 C 218.097656 315.1875 217.125 353.375 218.136719 361.351562 C 217.800781 362.011719 217.394531 362.617188 216.910156 363.175781 C 216.425781 363.730469 215.882812 364.21875 215.277344 364.644531 C 214.675781 365.066406 214.027344 365.414062 213.339844 365.675781 C 212.652344 365.941406 211.945312 366.121094 211.210938 366.214844 C 207.40625 367.023438 200.359375 366.738281 195.660156 355.523438 C 186.792969 334.382812 187.5625 299.351562 188.210938 295.789062 C 188.574219 294.679688 188.480469 293.613281 187.925781 292.589844 C 187.625 292.039062 187.21875 291.582031 186.707031 291.21875 C 186.195312 290.855469 185.628906 290.625 185.011719 290.523438 L 136.171875 282.425781 C 135.234375 282.28125 134.3125 282.0625 133.414062 281.761719 C 132.511719 281.460938 131.644531 281.085938 130.808594 280.640625 C 129.972656 280.191406 129.179688 279.675781 128.433594 279.089844 C 127.6875 278.503906 126.992188 277.863281 126.355469 277.160156 C 125.71875 276.457031 125.144531 275.703125 124.636719 274.902344 C 124.128906 274.101562 123.691406 273.261719 123.328125 272.386719 C 122.964844 271.507812 122.675781 270.609375 122.46875 269.683594 C 122.257812 268.757812 122.128906 267.820312 122.078125 266.875 C 122.085938 266.144531 122.144531 265.421875 122.253906 264.699219 C 122.367188 263.980469 122.53125 263.273438 122.746094 262.578125 C 122.960938 261.878906 123.226562 261.203125 123.542969 260.546875 C 123.855469 259.886719 124.214844 259.257812 124.621094 258.652344 C 125.027344 258.046875 125.476562 257.472656 125.964844 256.933594 C 126.457031 256.394531 126.984375 255.894531 127.546875 255.429688 C 128.109375 254.96875 128.703125 254.550781 129.328125 254.171875 C 129.949219 253.796875 130.597656 253.46875 131.269531 253.1875 C 131.53125 253.042969 131.769531 252.875 131.992188 252.679688 C 132.214844 252.488281 132.410156 252.269531 132.585938 252.03125 C 132.761719 251.792969 132.90625 251.539062 133.027344 251.269531 C 133.144531 251 133.234375 250.71875 133.292969 250.429688 C 133.347656 250.140625 133.375 249.851562 133.367188 249.554688 C 133.363281 249.261719 133.324219 248.96875 133.253906 248.683594 C 133.1875 248.394531 133.085938 248.121094 132.957031 247.855469 C 132.828125 247.589844 132.667969 247.34375 132.484375 247.113281 C 131.917969 246.421875 119.164062 230.222656 131.59375 220.179688 C 131.941406 219.902344 132.234375 219.574219 132.472656 219.199219 C 132.710938 218.824219 132.886719 218.421875 132.992188 217.992188 C 133.097656 217.558594 133.132812 217.121094 133.09375 216.679688 C 133.054688 216.234375 132.949219 215.808594 132.769531 215.402344 C 132.769531 215.402344 128.515625 205.277344 131.59375 198.273438 C 132.324219 196.8125 133.324219 195.570312 134.585938 194.539062 C 135.851562 193.507812 137.269531 192.78125 138.84375 192.359375 C 139.34375 192.191406 139.796875 191.9375 140.195312 191.59375 C 140.597656 191.25 140.917969 190.84375 141.160156 190.375 C 141.402344 189.90625 141.546875 189.410156 141.59375 188.882812 C 141.640625 188.359375 141.589844 187.84375 141.4375 187.339844 C 141.4375 187.339844 138.359375 177.011719 142.851562 171.140625 C 143.667969 170.25 144.574219 169.464844 145.574219 168.789062 C 146.570312 168.113281 147.636719 167.566406 148.765625 167.140625 C 149.898438 166.71875 151.0625 166.4375 152.257812 166.289062 C 153.457031 166.144531 154.652344 166.140625 155.851562 166.28125 C 182.335938 165.957031 242.152344 179.722656 253.207031 185.152344 Z M 113.574219 80.992188 C 127.625 61.433594 128.597656 23.246094 127.585938 15.265625 C 127.921875 14.609375 128.328125 14.003906 128.8125 13.445312 C 129.296875 12.890625 129.839844 12.398438 130.445312 11.976562 C 131.046875 11.550781 131.691406 11.207031 132.382812 10.941406 C 133.070312 10.675781 133.777344 10.5 134.511719 10.40625 C 138.316406 9.554688 145.363281 9.878906 150.0625 21.097656 C 158.929688 42.238281 158.160156 77.265625 157.511719 80.832031 C 157.421875 81.109375 157.359375 81.394531 157.332031 81.683594 C 157.300781 81.976562 157.300781 82.265625 157.335938 82.558594 C 157.367188 82.847656 157.433594 83.132812 157.527344 83.410156 C 157.621094 83.6875 157.746094 83.949219 157.898438 84.199219 C 158.050781 84.453125 158.226562 84.683594 158.429688 84.894531 C 158.632812 85.105469 158.855469 85.292969 159.097656 85.457031 C 159.339844 85.621094 159.597656 85.757812 159.871094 85.863281 C 160.140625 85.972656 160.421875 86.050781 160.710938 86.09375 L 209.550781 94.195312 C 210.488281 94.335938 211.410156 94.558594 212.308594 94.859375 C 213.210938 95.15625 214.078125 95.53125 214.914062 95.980469 C 215.75 96.429688 216.542969 96.945312 217.289062 97.53125 C 218.035156 98.113281 218.730469 98.757812 219.367188 99.460938 C 220.003906 100.164062 220.578125 100.917969 221.085938 101.71875 C 221.59375 102.519531 222.027344 103.359375 222.394531 104.234375 C 222.757812 105.109375 223.046875 106.011719 223.253906 106.9375 C 223.464844 107.863281 223.59375 108.796875 223.644531 109.746094 C 223.640625 110.476562 223.585938 111.207031 223.476562 111.929688 C 223.367188 112.652344 223.207031 113.367188 222.992188 114.066406 C 222.777344 114.765625 222.515625 115.449219 222.203125 116.109375 C 221.890625 116.769531 221.527344 117.40625 221.121094 118.015625 C 220.714844 118.625 220.265625 119.199219 219.777344 119.742188 C 219.285156 120.285156 218.757812 120.789062 218.191406 121.257812 C 217.628906 121.722656 217.03125 122.144531 216.40625 122.523438 C 215.777344 122.902344 215.125 123.230469 214.453125 123.515625 C 214.191406 123.65625 213.953125 123.824219 213.730469 124.019531 C 213.507812 124.214844 213.3125 124.429688 213.136719 124.667969 C 212.960938 124.90625 212.816406 125.160156 212.695312 125.429688 C 212.578125 125.699219 212.488281 125.980469 212.429688 126.269531 C 212.375 126.558594 212.347656 126.851562 212.351562 127.144531 C 212.359375 127.441406 212.398438 127.730469 212.464844 128.019531 C 212.535156 128.304688 212.636719 128.582031 212.765625 128.847656 C 212.894531 129.109375 213.050781 129.359375 213.238281 129.589844 C 213.804688 130.277344 226.558594 146.476562 214.128906 156.519531 C 213.78125 156.796875 213.488281 157.125 213.25 157.5 C 213.011719 157.875 212.835938 158.277344 212.730469 158.710938 C 212.625 159.140625 212.589844 159.578125 212.628906 160.023438 C 212.667969 160.464844 212.773438 160.890625 212.953125 161.296875 C 213.621094 162.929688 214.148438 164.601562 214.53125 166.320312 C 195.210938 161.898438 175.648438 159.199219 155.851562 158.222656 C 146.863281 158.222656 140.300781 160.972656 136.292969 166.320312 C 135.371094 167.796875 134.601562 169.347656 133.984375 170.972656 C 133.363281 172.601562 132.90625 174.269531 132.609375 175.984375 C 132.316406 177.699219 132.1875 179.425781 132.230469 181.167969 C 132.269531 182.90625 132.476562 184.625 132.851562 186.324219 C 130.960938 187.257812 129.277344 188.476562 127.804688 189.984375 C 126.332031 191.492188 125.152344 193.203125 124.265625 195.113281 C 123.527344 196.832031 123.011719 198.613281 122.726562 200.460938 C 112.414062 198.339844 102.34375 195.394531 92.515625 191.628906 C 83.726562 187.339844 70.445312 186.648438 62.871094 186.648438 L 61.292969 186.648438 L 61.292969 108.003906 C 71.617188 105.65625 101.75 97.476562 113.574219 80.992188 Z M 113.574219 80.992188 "/></g><g style="fill:#ffffff;fill-opacity:1;"><g transform="translate(121.79161, 208.600092)"><path style="stroke:none" d="M 5.5 0.171875 C 4.8125 0.171875 4.203125 0.0351562 3.671875 -0.234375 C 3.148438 -0.515625 2.75 -0.898438 2.46875 -1.390625 C 2.1875 -1.890625 2.046875 -2.453125 2.046875 -3.078125 C 2.046875 -3.703125 2.1875 -4.257812 2.46875 -4.75 C 2.75 -5.25 3.148438 -5.640625 3.671875 -5.921875 C 4.203125 -6.210938 4.8125 -6.359375 5.5 -6.359375 C 6.195312 -6.359375 6.804688 -6.21875 7.328125 -5.9375 C 7.859375 -5.65625 8.265625 -5.265625 8.546875 -4.765625 C 8.828125 -4.273438 8.96875 -3.71875 8.96875 -3.09375 C 8.96875 -2.144531 8.648438 -1.363281 8.015625 -0.75 C 7.390625 -0.132812 6.550781 0.171875 5.5 0.171875 Z M 5.5 0.171875 "/></g></g></g></svg>